 <svg  version="1.0" xmlns="http://www.w3.org/2000/svg"  width="300.000000pt" height="300.000000pt" viewBox="0 0 300.000000 300.000000"  preserveAspectRatio="xMidYMid meet">  <g transform="translate(0.000000,300.000000) scale(0.050000,-0.050000)" fill="#9a19cc" stroke="none"> <path d="M2607 4119 c-395 -51 -416 -113 -400 -1132 15 -950 43 -1055 295 -1099 51 -8 61 -6 38 10 -25 18 -22 21 15 22 25 0 43 -11 40 -25 -10 -50 224 -19 361 48 265 128 319 292 232 697 -17 77 63 175 242 297 756 512 198 1314 -823 1182z m-372 -923 c-4 -80 -7 -20 -7 134 0 154 3 220 7 146 4 -74 4 -200 0 -280z"/> </g> </svg> 